<svg id="final" xmlns="http://www.w3.org/2000/svg" viewBox="0 0 1077.99 890.69"><defs><style>.cls-1{fill:#fff;}</style></defs><title>logo_FIUCV_remasterizado</title><g id="blanco"><g id="FF"><rect class="cls-1" x="611.78" y="298.18" width="132.87" height="207.7" transform="translate(481.91 -456.41) rotate(45)"/><rect class="cls-1" x="688.47" y="271.06" width="191.61" height="132.87" transform="translate(467.35 -550.31) rotate(45)"/><rect class="cls-1" x="802.11" y="374.9" width="172.03" height="132.87" transform="translate(571.19 -593.32) rotate(45)"/><rect class="cls-1" x="902.04" y="464.96" width="132.87" height="179.72" transform="translate(674.98 -616.9) rotate(45)"/><polyline class="cls-1" points="815.91 659.27 745.2 588.55 872.28 461.47 966.24 555.42 863.38 658.28"/><polyline class="cls-1" points="674.49 659.27 760.53 573.23 846.57 659.27"/><rect class="cls-1" x="577.5" y="160.79" width="193.01" height="132.87" transform="translate(357.08 -504.63) rotate(45)"/><rect class="cls-1" x="323.81" y="792.75" width="176.23" height="132.87" transform="translate(727.18 -134.22) rotate(45)"/><polyline class="cls-1" points="443.06 890.69 401.53 849.15 495.48 755.2 630.97 890.69"/><polyline class="cls-1" points="634.32 0 675.48 41.15 581.52 135.1 447.02 0.6"/><rect class="cls-1" x="341.29" y="577.06" width="132.87" height="190.91" transform="translate(593.95 -185.92) rotate(45)"/><rect class="cls-1" x="214.24" y="682.48" width="174.83" height="132.87" transform="translate(616.91 -88.54) rotate(45)"/><rect class="cls-1" x="110.64" y="574.68" width="166.44" height="132.87" transform="translate(509.11 -43.89) rotate(45)"/><rect class="cls-1" x="44.59" y="436.98" width="132.87" height="178.33" transform="translate(403.56 -19) rotate(45)"/><polyline class="cls-1" points="246.26 232.03 324.88 310.65 205.71 429.82 111.75 335.87 215.6 232.03"/><polyline class="cls-1" points="403.5 232.03 317.46 318.07 231.42 232.03"/></g><g id="II"><polyline class="cls-1" points="625.04 232.03 428.23 428.83 334.28 334.88 437.13 232.03"/><rect class="cls-1" x="696.09" y="472.81" width="132.87" height="132.87" transform="translate(603.64 -475.83) rotate(45)"/><polyline class="cls-1" points="452.95 659.27 649.76 462.46 743.72 556.41 640.86 659.27"/><rect class="cls-1" x="251.04" y="474.79" width="132.87" height="132.87" transform="translate(474.69 -160.56) rotate(45)"/></g></g></svg>